PathFileType	4	(X/Y/Z)	C:/Users/opensim2020/Desktop/walking_exp_matlab/subject03_walking04_static.trc	
DataRate	CameraRate	NumFrames	NumMarkers	Units	OrigDataRate	OrigDataStartFrame	OrigNumFrames	
100.00	100.00	4	51	mm	100.00	256	196	
Frame#	Time	LFHD			RFHD			LBHD			RBHD			C7			T10			CLAV			STRN			RBAK			LSHO			LUPA			LELB			LFRM			LWRA			LWRB			LFIN			RSHO			RUPA			RELB			RFRM			RWRA			RWRB			RFIN			LASI			RASI			LPSI			RPSI			LTHI			LKNE			LTIB			LANK			LHEE			LTOE			RTHI			RKNE			RTIB			RANK			RHEE			RTOE			*39			*40			*41			*42			*43			*44			*45			*46			*47			*48			*49			*50			
		X1	Y1	Z1	X2	Y2	Z2	X3	Y3	Z3	X4	Y4	Z4	X5	Y5	Z5	X6	Y6	Z6	X7	Y7	Z7	X8	Y8	Z8	X9	Y9	Z9	X10	Y10	Z10	X11	Y11	Z11	X12	Y12	Z12	X13	Y13	Z13	X14	Y14	Z14	X15	Y15	Z15	X16	Y16	Z16	X17	Y17	Z17	X18	Y18	Z18	X19	Y19	Z19	X20	Y20	Z20	X21	Y21	Z21	X22	Y22	Z22	X23	Y23	Z23	X24	Y24	Z24	X25	Y25	Z25	X26	Y26	Z26	X27	Y27	Z27	X28	Y28	Z28	X29	Y29	Z29	X30	Y30	Z30	X31	Y31	Z31	X32	Y32	Z32	X33	Y33	Z33	X34	Y34	Z34	X35	Y35	Z35	X36	Y36	Z36	X37	Y37	Z37	X38	Y38	Z38	X39	Y39	Z39	X40	Y40	Z40	X41	Y41	Z41	X42	Y42	Z42	X43	Y43	Z43	X44	Y44	Z44	X45	Y45	Z45	X46	Y46	Z46	X47	Y47	Z47	X48	Y48	Z48	X49	Y49	Z49	X50	Y50	Z50	X51	Y51	Z51	

74	0.730	351.67001	-668.11530	1632.35352	381.93536	-538.52612	1643.26660	479.20206	-689.87024	1591.04041	504.44730	-561.78210	1602.09351	520.71350	-623.83313	1427.23291	540.31836	-615.59192	1115.60791	392.37378	-608.94733	1362.18372	338.90259	-607.92523	1197.98230	572.11841	-532.75964	1248.77832	442.14084	-768.24738	1398.79956	458.28046	-852.87701	1209.40039	455.73062	-881.05048	1089.59790	425.73953	-901.45050	964.13440	393.87378	-891.46130	846.15021	429.68304	-933.70813	853.53088	406.57391	-937.12018	771.62952	472.12097	-459.52042	1390.16943	479.93817	-363.52039	1180.20032	464.70020	-329.34549	1072.99146	443.63544	-300.76669	939.95654	400.89743	-311.27728	843.65686	443.06641	-276.22980	841.99310	415.34637	-270.35562	771.82660	385.20090	-719.44122	946.45831	396.66180	-485.50568	946.93799	548.74042	-679.94562	979.56732	553.11230	-530.73865	987.38275	454.24640	-772.13928	647.44104	461.27838	-735.39478	469.82379	517.72418	-754.37866	285.52396	539.32227	-729.79199	73.92452	580.73682	-696.95990	36.82794	387.00940	-709.19952	34.47169	470.31183	-439.95917	653.75623	465.63028	-473.99020	473.99823	518.84686	-462.14084	292.82181	547.00800	-501.13470	76.13609	587.47107	-552.85510	41.92622	404.91873	-500.46942	36.44344	441.63556	-640.85754	1698.41382																																	 
75	0.740	351.55768	-668.32147	1632.26941	381.77621	-538.75671	1643.29187	479.09106	-689.96185	1590.94849	504.25922	-561.85999	1602.10413	520.57813	-623.84082	1427.20862	540.10144	-615.58331	1115.53418	392.23697	-608.93018	1362.17236	338.72696	-607.91278	1197.98755	571.97662	-532.81122	1248.70850	441.88910	-768.22131	1398.74597	457.87573	-852.81506	1209.29431	455.31058	-880.93085	1089.50720	425.33383	-901.22803	964.00531	393.50183	-891.20728	846.06342	429.29706	-933.51337	853.43146	406.23248	-937.01556	771.53448	472.05292	-459.55600	1390.09595	479.84219	-363.60016	1180.10718	464.60123	-329.43094	1072.89832	443.45453	-300.90067	939.86121	400.68344	-311.34955	843.56030	442.93777	-276.34946	841.90344	415.17429	-270.48090	771.75659	385.00714	-719.45111	946.44104	396.46582	-485.48209	946.91223	548.51154	-679.88965	979.53369	552.94348	-530.68201	987.37286	454.07397	-772.12726	647.40979	461.13708	-735.38000	469.79333	517.63593	-754.36633	285.50232	539.34564	-729.74487	73.89176	580.73981	-696.94574	36.85306	386.99402	-709.18262	34.45457	470.12268	-439.95786	653.73840	465.42218	-473.48666	474.20306	518.78632	-462.11859	292.83542	546.99268	-501.08270	76.20792	587.48718	-552.83984	41.92872	404.91498	-500.48071	36.42990	441.50131	-641.07458	1698.39380																																	 
76	0.750	351.41348	-668.51685	1632.19714	381.54749	-538.92114	1643.32593	478.99973	-690.09705	1590.86633	504.03552	-561.96997	1602.13623	520.43237	-623.90289	1427.16138	539.90228	-615.60071	1115.49902	392.10660	-608.93585	1362.16296	338.54285	-607.90002	1197.99683	571.82758	-532.88013	1248.66309	441.70471	-768.29199	1398.70703	457.48175	-852.74664	1209.23230	454.92300	-880.83289	1089.41248	424.94235	-901.02271	963.91541	393.07925	-890.96039	845.98163	428.87762	-933.30707	853.32648	405.76791	-936.54504	771.36316	471.95447	-459.59039	1390.04846	479.78912	-363.68716	1180.06433	464.49911	-329.54672	1072.83948	443.32672	-301.03918	939.79407	400.54428	-311.58609	843.46240	442.77057	-276.52557	841.80780	415.01376	-270.65900	771.72101	384.80914	-719.45001	946.42938	396.25717	-485.47098	946.93915	548.37067	-679.93970	979.58582	552.81226	-530.57312	987.36493	453.89441	-772.09473	647.40454	461.02585	-735.36053	469.81024	517.56097	-754.35498	285.52545	539.40997	-730.00623	73.98578	580.74384	-696.92670	36.84184	387.00443	-709.16736	34.46281	469.91629	-439.94342	653.73694	465.31039	-473.45532	474.21518	518.72076	-462.12808	292.82379	547.03619	-501.09338	76.19849	587.35699	-552.56616	41.83970	404.91440	-500.44736	36.43472	441.34924	-641.34076	1698.36353																																	 
77	0.760	351.29593	-668.74384	1632.13708	381.34274	-539.15277	1643.33606	478.86154	-690.15851	1590.77563	503.85529	-562.09625	1602.18323	520.27551	-623.95898	1427.12207	539.72632	-615.67102	1115.45667	391.96848	-608.92383	1362.12341	338.36606	-607.87610	1197.96985	571.69824	-532.94708	1248.61487	441.45911	-768.30463	1398.66748	457.13727	-852.71045	1209.13611	454.49490	-880.77570	1089.30579	424.52243	-900.84076	963.84534	392.73184	-890.71027	845.85852	428.40735	-933.05902	853.21808	405.38354	-936.25378	771.23895	471.87466	-459.59433	1390.03687	479.64188	-363.76465	1179.97852	464.38553	-329.66498	1072.77795	443.10239	-301.23694	939.58972	400.37027	-311.71497	843.35095	442.63031	-276.65137	841.75470	414.80292	-270.86346	771.63879	384.59232	-719.48254	946.40887	396.09033	-485.50092	946.91046	548.17340	-679.94830	979.55731	552.60779	-530.57727	987.33740	453.70074	-772.09991	647.39221	460.88507	-735.34094	469.77402	517.47784	-754.34534	285.50598	539.30261	-729.82159	73.89089	580.71686	-696.95490	36.84990	386.99548	-709.17932	34.46388	469.75769	-439.94864	653.73254	465.18298	-473.50073	474.18234	518.64056	-462.12686	292.83310	546.97980	-501.11127	76.20163	587.46820	-552.86273	41.96598	404.90594	-500.47833	36.43204	441.16910	-641.49701	1698.26062																																	 
